HIERARCHY
ROOT Elbow
{
	OFFSET	0.00	0.00	0.00
	CHANNELS 6 Xposition Yposition Zposition Zrotation Xrotation Yrotation
	JOINT L_Wrist
	{
		OFFSET	 0.208349	 0.000000	 0.000000
		CHANNELS 3 Zrotation Xrotation Yrotation
		JOINT L_index_Proximal
		{
			OFFSET	 0.093499	 0.010637	-0.002084
			CHANNELS 3 Zrotation Xrotation Yrotation
			JOINT L_index_b
			{
				OFFSET	 0.033152	 0.000000	 0.000000
				CHANNELS 3 Zrotation Xrotation Yrotation
				JOINT L_index_c
				{
					OFFSET	 0.018651	 0.000000	 0.000000
					CHANNELS 3 Zrotation Xrotation Yrotation
					End Site
					{
						OFFSET	 0.018651	 0.000000	 0.000000
					}
				}
			}
		}
		JOINT L_middle_Proximal
		{
			OFFSET	 0.090632	-0.006115	-0.003750
			CHANNELS 3 Zrotation Xrotation Yrotation
			JOINT L_middle_b
			{
				OFFSET	 0.037195	 0.000000	 0.000000
				CHANNELS 3 Zrotation Xrotation Yrotation
				JOINT L_middle_c
				{
					OFFSET	 0.021943	 0.000000	 0.000000
					CHANNELS 3 Zrotation Xrotation Yrotation
					End Site
					{
						OFFSET	 0.021943	 0.000000	 0.000000
					}
				}
			}
		}
		JOINT L_pinky_Proximal
		{
			OFFSET	 0.074015	-0.035449	-0.000417
			CHANNELS 3 Zrotation Xrotation Yrotation
			JOINT L_pinky_b
			{
				OFFSET	 0.027285	 0.000000	 0.000000
				CHANNELS 3 Zrotation Xrotation Yrotation
				JOINT L_pinky_c
				{
					OFFSET	 0.015093	 0.000000	 0.000000
					CHANNELS 3 Zrotation Xrotation Yrotation
					End Site
					{
						OFFSET	 0.015093	 0.000000	 0.000000
					}
				}
			}
		}
		JOINT L_ring_Proximal
		{
			OFFSET	 0.082801	-0.021859	-0.003750
			CHANNELS 3 Zrotation Xrotation Yrotation
			JOINT L_ring_b
			{
				OFFSET	 0.034478	 0.000000	 0.000000
				CHANNELS 3 Zrotation Xrotation Yrotation
				JOINT L_ring_c
				{
					OFFSET	 0.021377	 0.000000	 0.000000
					CHANNELS 3 Zrotation Xrotation Yrotation
					End Site
					{
						OFFSET	 0.021377	 0.000000	 0.000000
					}
				}
			}
		}
		JOINT L_thumb_Proximal
		{
			OFFSET	 0.030306	 0.018528	 0.004584
			CHANNELS 3 Zrotation Xrotation Yrotation
			JOINT L_thumb_a
			{
				OFFSET	 0.038520	 0.000000	 0.000000
				CHANNELS 3 Zrotation Xrotation Yrotation
				JOINT L_thumb_b
				{
					OFFSET	 0.026310	 0.000000	 0.000000
					CHANNELS 3 Zrotation Xrotation Yrotation
					End Site
					{
						OFFSET	 0.026310	 0.000000	 0.000000
					}
				}
			}
		}
	}
}
MOTION
Frames:    10
Frame Time: 0.01666667
 0.478122	-0.180480	 0.744510	 79.178270	 28.475980	 7.393827	 17.480600	-1.108164	-6.298166	-16.543830	 9.047909	-49.582890	-9.388539	 5.120213	-57.137440	-7.635278	 2.032564	-29.774420	-23.013290	-5.171774	-19.614400	-1.182990	 0.249308	-23.800810	-1.220626	 0.116277	-10.882460	-22.416810	-20.977320	-24.523590	-0.028940	 0.005596	-21.887430	-0.336926	 0.028623	-9.712170	-23.995140	-9.966073	-23.448040	-1.432220	 0.258765	-20.481820	 1.713395	-0.133047	-8.879791	 59.499680	 57.972790	-27.345810	-4.627409	 0.873250	-21.362810	-6.507663	 3.708358	-59.316900
 0.478261	-0.180550	 0.744371	 79.177390	 28.422170	 7.397011	 17.450000	-1.107453	-6.294096	-16.426080	 9.090772	-50.175090	-9.316986	 5.139676	-57.691840	-7.556435	 2.033207	-30.081100	-22.985690	-5.181201	-19.595060	-1.172971	 0.248157	-23.890360	-1.187409	 0.113724	-10.941010	-22.258270	-21.013080	-24.402860	 0.002510	-0.000485	-21.789910	-0.373445	 0.031468	-9.634670	-23.952140	-9.979912	-23.414710	-1.427645	 0.259173	-20.577710	 1.708562	-0.132847	-8.891701	 59.625050	 57.912510	-27.526930	-4.622134	 0.871159	-21.336030	-6.506415	 3.710135	-59.350220
 0.478331	-0.180587	 0.744338	 79.167180	 28.427300	 7.407829	 17.453240	-1.107300	-6.293237	-16.370040	 9.101141	-50.404490	-9.338257	 5.162800	-57.798690	-7.537443	 2.030877	-30.120650	-22.945720	-5.196371	-19.554640	-1.180271	 0.250133	-23.930220	-1.194919	 0.114574	-10.953550	-22.222600	-21.022850	-24.415560	-0.005827	 0.001127	-21.855610	-0.392633	 0.033286	-9.692923	-23.938100	-9.983981	-23.413010	-1.437065	 0.261643	-20.636370	 1.693173	-0.131886	-8.907517	 59.752500	 57.865150	-27.648620	-4.593126	 0.866496	-21.356200	-6.524069	 3.730561	-59.486990
 0.478540	-0.180744	 0.744354	 79.143150	 28.440270	 7.431531	 17.476050	-1.106154	-6.286676	-15.977930	 9.056985	-51.400550	-8.887574	 4.982182	-58.480820	-7.283821	 1.995335	-30.603260	-22.885560	-5.212434	-19.548130	-1.209499	 0.257757	-24.060020	-1.221135	 0.117560	-10.996900	-22.204280	-21.032130	-24.517150	-0.019452	 0.003790	-22.038990	-0.414837	 0.035338	-9.739689	-23.847730	-10.012830	-23.345580	-1.466795	 0.267885	-20.698880	 1.653309	-0.128216	-8.867943	 59.804740	 57.840410	-27.721250	-4.623799	 0.871954	-21.347870	-6.588949	 3.781528	-59.667880
 0.478643	-0.180818	 0.744420	 79.125760	 28.466240	 7.445886	 17.497450	-1.106601	-6.289283	-15.639620	 8.999259	-52.182640	-8.549939	 4.842329	-58.988860	-7.091546	 1.967136	-30.972290	-22.875760	-5.207954	-19.604580	-1.245079	 0.267132	-24.217490	-1.234652	 0.118974	-11.007550	-22.209600	-21.031820	-24.540830	 0.005685	-0.001108	-22.065710	-0.409999	 0.034848	-9.715506	-23.825180	-10.020080	-23.327420	-1.477034	 0.270240	-20.735470	 1.637589	-0.126569	-8.838799	 59.775590	 57.848620	-27.705160	-4.639531	 0.872681	-21.294300	-6.631096	 3.812392	-59.754550
 0.478762	-0.180923	 0.744582	 79.103320	 28.464580	 7.450124	 17.513790	-1.116914	-6.348143	-15.239860	 8.886907	-52.892720	-8.215866	 4.696581	-59.451690	-6.598338	 1.827596	-30.933020	-22.869420	-5.182706	-19.822030	-1.300280	 0.282924	-24.549560	-1.273602	 0.122809	-11.015530	-22.161240	-21.040990	-24.466230	 0.025839	-0.005027	-22.012540	-0.435824	 0.036531	-9.582600	-23.821270	-10.021390	-23.323080	-1.491272	 0.274588	-20.865320	 1.614252	-0.124052	-8.788515	 59.814720	 57.830920	-27.755860	-4.631818	 0.871469	-21.300380	-6.658374	 3.844863	-59.971110
 0.478756	-0.180979	 0.744673	 79.094210	 28.439140	 7.446671	 17.507430	-1.125542	-6.397432	-15.124470	 8.835023	-52.992400	-8.119639	 4.659444	-59.643050	-6.489504	 1.797217	-30.930220	-22.863590	-5.183230	-19.829940	-1.317659	 0.286899	-24.565840	-1.298199	 0.125078	-11.006080	-22.130770	-21.045180	-24.384680	 0.013401	-0.002604	-21.994130	-0.453145	 0.037937	-9.570721	-23.826040	-10.018640	-23.353120	-1.502754	 0.277715	-20.939290	 1.609023	-0.123457	-8.774351	 59.948780	 57.784730	-27.865830	-4.594634	 0.866023	-21.337720	-6.623186	 3.836337	-60.124280
 0.478573	-0.181091	 0.744834	 79.082470	 28.316430	 7.428539	 17.448680	-1.151696	-6.546649	-15.071690	 8.786405	-52.895310	-8.116244	 4.667579	-59.750140	-6.369869	 1.759453	-30.853940	-22.831110	-5.197974	-19.777560	-1.341941	 0.292511	-24.592360	-1.294455	 0.124746	-11.008210	-22.064200	-21.051690	-24.153040	-0.006976	 0.001356	-21.859050	-0.491534	 0.040711	-9.471120	-23.815400	-10.019660	-23.395000	-1.501083	 0.277895	-20.975770	 1.640167	-0.125740	-8.767130	 60.536140	 57.574860	-28.366520	-4.453703	 0.845278	-21.482580	-6.468378	 3.790160	-60.701870
 0.478557	-0.181111	 0.744933	 79.081650	 28.212570	 7.418293	 17.408230	-1.168961	-6.645233	-15.042010	 8.771064	-52.909680	-8.101749	 4.665415	-59.815980	-6.317204	 1.745819	-30.869810	-22.821910	-5.210002	-19.699020	-1.345293	 0.292817	-24.558120	-1.290318	 0.124288	-11.003220	-22.061230	-21.048580	-24.068700	-0.016867	 0.003245	-21.779860	-0.517641	 0.042862	-9.466597	-23.827330	-10.018800	-23.341560	-1.497115	 0.276425	-20.921050	 1.622825	-0.124071	-8.743242	 60.839840	 57.444220	-28.708520	-4.460569	 0.847925	-21.516100	-6.425977	 3.782792	-60.933880
 0.478379	-0.181147	 0.745167	 79.068510	 28.025640	 7.419644	 17.350910	-1.196263	-6.801270	-14.686590	 8.651984	-53.464970	-7.758399	 4.519443	-60.393140	-6.147748	 1.715724	-31.160630	-22.824600	-5.225808	-19.565030	-1.381444	 0.299693	-24.479150	-1.326834	 0.126749	-10.913400	-22.243310	-21.000670	-24.036000	 0.002669	-0.000514	-21.746110	-0.516991	 0.042457	-9.389321	-23.874810	-10.014160	-23.155260	-1.502325	 0.276604	-20.863860	 1.579623	-0.118927	-8.610919	 61.334140	 57.257750	-29.140830	-4.483305	 0.857970	-21.656310	-6.478230	 3.831126	-61.164300
